<?xml version="1.0" standalone="no"?>
<!DOCTYPE svg PUBLIC "-//W3C//DTD SVG 20010904//EN"
 "http://www.w3.org/TR/2001/REC-SVG-20010904/DTD/svg10.dtd">
<svg version="1.0" xmlns="http://www.w3.org/2000/svg"
 width="768.000000pt" height="768.000000pt" viewBox="0 0 768.000000 768.000000"
 preserveAspectRatio="xMidYMid meet">
<metadata>
Created by potrace 1.11, written by Peter Selinger 2001-2013
</metadata>
<g transform="translate(0.000000,768.000000) scale(0.100000,-0.100000)"
fill="#000000" stroke="none">
<path d="M2988 7035 c-2 -2 -34 -6 -73 -9 -38 -3 -88 -8 -110 -11 -22 -3 -53
-7 -70 -10 -86 -12 -158 -25 -265 -50 -187 -43 -409 -118 -570 -193 -19 -9
-37 -17 -40 -17 -14 -3 -215 -108 -240 -125 -15 -11 -30 -20 -33 -20 -6 0
-109 -62 -117 -70 -3 -3 -13 -9 -22 -15 -31 -19 -133 -89 -138 -95 -3 -3 -21
-17 -40 -30 -19 -13 -40 -29 -46 -35 -6 -5 -33 -28 -60 -50 -233 -191 -458
-440 -623 -691 -39 -60 -75 -114 -79 -120 -59 -85 -248 -477 -267 -554 -2 -8
-11 -35 -20 -60 -28 -75 -90 -294 -102 -360 -2 -13 -10 -53 -17 -90 -8 -36
-14 -72 -14 -80 0 -8 -3 -26 -6 -40 -5 -26 -12 -80 -23 -190 -13 -117 -6 -615
8 -615 1 0 3 -9 4 -21 1 -11 5 -38 10 -60 4 -21 8 -51 10 -65 2 -14 13 -63 25
-110 12 -46 23 -94 26 -106 4 -23 69 -215 83 -248 93 -212 151 -320 257 -480
40 -60 81 -119 91 -130 10 -11 25 -29 33 -41 48 -69 220 -249 323 -338 120
-104 283 -220 402 -286 143 -80 367 -180 455 -204 14 -4 34 -11 45 -16 11 -5
47 -16 80 -25 129 -34 239 -57 340 -70 28 -3 64 -8 80 -11 17 -2 78 -6 137 -8
59 -2 111 -7 117 -10 5 -4 12 -2 15 3 4 6 18 6 36 1 17 -5 30 -5 30 0 0 5 13
5 30 0 17 -5 30 -5 30 0 0 5 13 5 30 0 17 -5 30 -5 30 0 0 5 13 5 30 0 17 -5
30 -5 30 0 0 5 13 5 30 0 17 -5 30 -5 30 0 0 5 13 5 30 0 17 -5 30 -5 30 0 0
5 13 5 30 0 17 -5 30 -5 30 0 0 5 13 5 30 0 17 -5 30 -5 30 0 0 5 13 5 30 0
17 -5 30 -5 30 0 0 5 13 5 30 0 17 -5 30 -5 30 0 0 5 13 5 30 0 17 -5 30 -5
30 0 0 5 13 5 30 0 17 -5 30 -5 30 0 0 5 13 5 30 0 17 -5 30 -5 30 0 0 5 13 5
30 0 17 -5 30 -5 30 0 0 5 13 5 30 0 17 -5 30 -5 30 0 0 5 13 5 30 0 17 -5 30
-5 30 0 0 5 13 5 30 0 17 -5 30 -5 30 0 0 5 13 5 30 0 17 -5 30 -5 30 0 0 5
13 5 30 0 17 -5 30 -5 30 0 0 5 13 5 30 0 19 -5 30 -5 30 1 0 6 5 7 10 4 15
-9 145 -9 159 -1 6 4 11 4 11 -1 0 -4 30 -8 68 -9 68 -1 203 -11 257 -20 17
-2 41 -6 55 -8 156 -22 351 -89 416 -144 54 -46 75 -112 49 -162 -27 -53 -163
-135 -256 -155 -19 -4 -38 -10 -44 -14 -5 -3 -18 -6 -27 -7 -10 -1 -19 -2 -20
-4 -4 -2 -26 -7 -73 -14 -22 -3 -51 -8 -65 -11 -63 -12 -240 -27 -357 -29 -34
0 -64 -4 -68 -8 -4 -3 1 -5 12 -4 10 2 32 -1 48 -6 17 -5 48 -11 70 -13 22 -2
56 -6 75 -9 179 -27 644 -28 790 -2 14 3 45 7 70 10 59 6 291 53 359 73 29 8
59 16 65 17 48 9 371 127 424 155 9 5 60 30 112 56 141 68 254 132 313 178 20
16 37 26 37 23 0 -8 154 105 158 116 2 4 10 8 17 8 7 0 15 3 17 8 2 4 28 27
58 52 89 72 97 79 234 215 120 119 209 216 246 269 8 12 20 27 28 35 7 8 21
26 30 40 9 14 22 30 29 34 7 4 13 14 13 22 0 7 3 15 8 17 11 5 72 95 72 106 0
6 4 12 8 14 11 4 112 173 112 186 0 6 4 12 8 14 7 3 79 146 125 248 43 97 135
351 143 396 1 6 9 36 17 65 21 72 65 290 72 359 4 30 8 61 11 68 11 34 19 206
18 397 0 189 -4 256 -19 350 -3 17 -7 44 -8 60 -2 17 -7 36 -11 43 -4 7 -5 12
-2 12 2 0 -2 26 -9 58 -8 33 -16 70 -19 83 -10 49 -37 145 -46 164 -5 11 -12
31 -16 45 -23 85 -127 317 -199 445 -37 66 -169 265 -192 290 -10 11 -25 29
-33 41 -48 69 -220 249 -323 338 -120 104 -283 220 -402 286 -143 80 -367 180
-455 204 -14 4 -34 11 -45 16 -11 5 -47 16 -80 25 -129 34 -239 57 -340 70
-27 3 -63 8 -80 11 -16 2 -78 6 -137 8 -59 2 -111 7 -117 10 -5 4 -12 2 -15
-3 -4 -6 -18 -6 -36 -1 -17 5 -30 5 -30 0 0 -5 -13 -5 -30 0 -17 5 -30 5 -30
0 0 -5 -13 -5 -30 0 -17 5 -30 5 -30 0 0 -5 -13 -5 -30 0 -17 5 -30 5 -30 0 0
-5 -13 -5 -30 0 -17 5 -30 5 -30 0 0 -5 -13 -5 -30 0 -17 5 -30 5 -30 0 0 -5
-13 -5 -30 0 -17 5 -30 5 -30 0 0 -5 -13 -5 -30 0 -17 5 -30 5 -30 0 0 -5 -13
-5 -30 0 -17 5 -30 5 -30 0 0 -5 -13 -5 -30 0 -17 5 -30 5 -30 0 0 -5 -13 -5
-30 0 -17 5 -30 5 -30 0 0 -5 -13 -5 -30 0 -17 5 -30 5 -30 0 0 -5 -13 -5 -30
0 -17 5 -30 5 -30 0 0 -5 -13 -5 -30 0 -17 5 -30 5 -30 0 0 -5 -13 -5 -30 0
-17 5 -30 5 -30 0 0 -5 -13 -5 -30 0 -17 5 -30 5 -30 0 0 -5 -13 -5 -30 0 -17
5 -30 5 -30 0 0 -5 -13 -5 -30 0 -17 5 -30 5 -30 0 0 -5 -13 -5 -30 0 -17 5
-30 5 -30 0 0 -5 -13 -5 -30 0 -19 5 -30 5 -30 -1 0 -6 -5 -7 -10 -4 -15 9
-145 9 -159 1 -6 -4 -11 -4 -11 1 0 4 -30 9 -68 9 -71 2 -207 12 -257 20 -16
2 -41 6 -55 8 -156 22 -351 89 -416 144 -54 46 -75 112 -49 162 27 53 163 135
256 155 19 4 39 10 44 14 6 3 18 6 28 7 9 1 18 2 20 4 3 2 25 7 72 14 22 3 51
8 65 11 63 12 241 27 357 29 66 1 93 10 40 14 -33 3 -72 9 -72 12 0 1 -16 3
-35 5 -19 2 -51 6 -71 9 -91 14 -171 18 -381 21 -125 1 -228 1 -230 0z m-928
-2736 c152 -45 282 -182 324 -341 14 -54 19 -193 7 -213 -3 -5 -7 -21 -9 -35
-6 -41 -69 -152 -113 -197 -52 -54 -117 -97 -188 -125 -75 -29 -230 -31 -311
-4 -134 45 -261 169 -300 291 -7 22 -16 49 -20 60 -4 11 -6 63 -5 115 3 133
40 225 129 320 41 45 134 109 167 115 10 2 24 7 29 10 6 4 23 9 37 11 15 3 29
7 31 9 9 8 182 -4 222 -16z m1895 7 c156 -39 290 -164 340 -316 18 -54 30
-225 17 -245 -4 -5 -8 -21 -10 -35 -2 -13 -19 -54 -38 -90 -125 -239 -415
-327 -654 -199 -103 55 -196 168 -229 279 -20 65 -22 201 -4 258 8 26 16 55
18 64 7 31 71 123 116 166 41 39 138 98 176 107 10 3 34 8 53 13 41 10 172 9
215 -2z m1935 -4 c54 -15 71 -23 125 -57 142 -91 218 -229 219 -395 0 -111 -9
-151 -51 -232 -54 -104 -146 -184 -261 -229 -76 -30 -231 -32 -312 -5 -118 40
-221 130 -274 241 -49 100 -53 121 -51 226 2 104 23 172 76 252 65 98 175 177
284 203 55 13 190 11 245 -4z"/>
</g>
</svg>
