<?xml version="1.0" encoding="UTF-8" standalone="no"?><!DOCTYPE svg PUBLIC "-//W3C//DTD SVG 1.1//EN" "http://www.w3.org/Graphics/SVG/1.1/DTD/svg11.dtd"><svg width="100%" height="100%" viewBox="0 0 438 473" version="1.1" xmlns="http://www.w3.org/2000/svg" xmlns:xlink="http://www.w3.org/1999/xlink" xml:space="preserve" style="fill-rule:evenodd;clip-rule:evenodd;stroke-linecap:square;stroke-linejoin:round;stroke-miterlimit:1.5;"><g id="Stopwatch"><path d="M241.782,67.091c102.935,12.639 176.243,106.471 163.604,209.405c-12.64,102.935 -106.471,176.243 -209.406,163.604c-102.934,-12.64 -176.242,-106.471 -163.603,-209.406c12.639,-102.934 106.471,-176.242 209.405,-163.603Z" style="fill:none;stroke:#bfbfbf;stroke-width:0.6px;stroke-dasharray:0.6,1.2,0.6,1.2;"/><path d="M238.587,93.115c88.571,10.875 151.65,91.614 140.775,180.186c-10.876,88.571 -91.614,151.651 -180.186,140.775c-88.572,-10.876 -151.651,-91.614 -140.775,-180.186c10.875,-88.572 91.614,-151.651 180.186,-140.775Z" style="fill:none;stroke:#bfbfbf;stroke-width:0.6px;stroke-dasharray:0.6,1.2,0.6,1.2;"/><path d="M233.74,132.589c66.785,8.2 114.349,69.079 106.148,135.865c-8.201,66.785 -69.08,114.349 -135.865,106.148c-66.786,-8.201 -114.349,-69.08 -106.148,-135.865c8.2,-66.786 69.079,-114.349 135.865,-106.148Z" style="fill:none;stroke:#bfbfbf;stroke-width:0.6px;stroke-dasharray:0.6,1.2,0.6,1.2;"/><path d="M219.84,245.788c4.309,0.529 7.378,4.457 6.848,8.766c-0.529,4.309 -4.456,7.378 -8.765,6.848c-4.309,-0.529 -7.378,-4.456 -6.849,-8.765c0.529,-4.309 4.457,-7.378 8.766,-6.849Z" style="fill:none;stroke:#bfbfbf;stroke-width:0.6px;stroke-dasharray:0.6,1.2,0.6,1.2;"/><path d="M221.704,230.606c12.688,1.558 21.725,13.124 20.167,25.812c-1.558,12.688 -13.124,21.725 -25.813,20.167c-12.688,-1.558 -21.724,-13.124 -20.166,-25.813c1.558,-12.688 13.124,-21.724 25.812,-20.166Z" style="fill:none;stroke:#bfbfbf;stroke-width:0.6px;stroke-dasharray:0.6,1.2,0.6,1.2;"/><path d="M229.213,169.451c4.309,0.53 7.378,4.457 6.849,8.766c-0.529,4.309 -4.457,7.378 -8.766,6.849c-4.309,-0.529 -7.378,-4.457 -6.849,-8.766c0.53,-4.309 4.457,-7.378 8.766,-6.849Z" style="fill:none;stroke:#bfbfbf;stroke-width:0.6px;stroke-dasharray:0.6,1.2,0.6,1.2;"/><path d="M220.09,99.636c-0.806,-0.007 -1.612,-0.007 -2.418,0l0.181,23.094c0.686,-0.006 1.371,-0.006 2.056,0l0.181,-23.094Zm-16.099,0.717c-0.803,0.078 -1.604,0.162 -2.405,0.253l2.594,22.948c0.681,-0.077 1.362,-0.149 2.044,-0.215l-2.233,-22.986Zm-15.937,2.396c-0.79,0.161 -1.578,0.329 -2.366,0.503l4.979,22.551c0.67,-0.148 1.34,-0.29 2.011,-0.427l-4.624,-22.627Zm-15.599,4.048c-0.768,0.244 -1.535,0.493 -2.3,0.748l7.309,21.907c0.65,-0.216 1.302,-0.428 1.955,-0.635l-6.964,-22.02Zm-15.09,5.657c-0.739,0.323 -1.476,0.65 -2.209,0.984l9.558,21.024c0.624,-0.284 1.25,-0.563 1.878,-0.836l-9.227,-21.172Zm-14.416,7.204c-0.702,0.397 -1.4,0.801 -2.095,1.209l11.704,19.909c0.591,-0.347 1.185,-0.69 1.781,-1.028l-11.39,-20.09Zm-13.585,8.671c-0.655,0.468 -1.308,0.942 -1.956,1.421l13.721,18.577c0.551,-0.407 1.105,-0.81 1.663,-1.208l-13.428,-18.79Zm-12.603,10.043c-0.603,0.535 -1.203,1.074 -1.797,1.618l15.587,17.041c0.506,-0.463 1.015,-0.921 1.528,-1.376l-15.318,-17.283Zm-11.485,11.306c-0.544,0.595 -1.083,1.194 -1.618,1.797l17.283,15.318c0.455,-0.513 0.913,-1.022 1.376,-1.528l-17.041,-15.587Zm-10.24,12.444c-0.479,0.648 -0.953,1.301 -1.421,1.956l18.79,13.428c0.398,-0.558 0.801,-1.112 1.208,-1.663l-18.577,-13.721Zm-8.883,13.446c-0.409,0.695 -0.812,1.393 -1.209,2.095l20.09,11.39c0.338,-0.596 0.681,-1.19 1.028,-1.781l-19.909,-11.704Zm-7.429,14.302c-0.334,0.734 -0.661,1.47 -0.984,2.209l21.172,9.227c0.273,-0.628 0.552,-1.254 0.836,-1.877l-21.024,-9.559Zm-5.893,14.999c-0.255,0.765 -0.504,1.532 -0.748,2.3l22.02,6.964c0.207,-0.653 0.418,-1.305 0.635,-1.955l-21.907,-7.309Zm-4.293,15.534c-0.174,0.787 -0.342,1.575 -0.503,2.365l22.627,4.624c0.137,-0.671 0.279,-1.341 0.427,-2.011l-22.551,-4.978Zm-2.646,15.897c-0.091,0.801 -0.175,1.602 -0.253,2.405l22.986,2.233c0.066,-0.682 0.138,-1.363 0.215,-2.044l-22.948,-2.594Zm-0.97,16.086c-0.007,0.806 -0.007,1.612 0,2.419l23.094,-0.182c-0.006,-0.685 -0.006,-1.37 0,-2.056l-23.094,-0.181Zm0.717,16.1c0.078,0.802 0.162,1.604 0.253,2.405l22.948,-2.594c-0.077,-0.681 -0.149,-1.363 -0.215,-2.045l-22.986,2.234Zm2.396,15.936c0.161,0.79 0.329,1.579 0.503,2.366l22.551,-4.979c-0.148,-0.669 -0.29,-1.339 -0.427,-2.011l-22.627,4.624Zm4.048,15.599c0.244,0.769 0.493,1.536 0.748,2.3l21.907,-7.308c-0.217,-0.65 -0.428,-1.302 -0.635,-1.956l-22.02,6.964Zm5.657,15.091c0.323,0.739 0.65,1.475 0.984,2.209l21.024,-9.559c-0.284,-0.624 -0.563,-1.25 -0.836,-1.878l-21.172,9.228Zm7.204,14.416c0.397,0.701 0.8,1.399 1.209,2.094l19.909,-11.704c-0.347,-0.591 -0.69,-1.184 -1.028,-1.78l-20.09,11.39Zm8.671,13.584c0.468,0.656 0.942,1.308 1.421,1.957l18.577,-13.721c-0.407,-0.551 -0.81,-1.106 -1.208,-1.663l-18.79,13.427Zm10.043,12.604c0.535,0.603 1.074,1.202 1.618,1.797l17.041,-15.588c-0.463,-0.505 -0.921,-1.015 -1.376,-1.527l-17.283,15.318Zm11.306,11.484c0.594,0.544 1.194,1.084 1.797,1.619l15.318,-17.284c-0.513,-0.454 -1.022,-0.913 -1.528,-1.375l-15.587,17.04Zm12.444,10.24c0.648,0.479 1.301,0.953 1.956,1.422l13.428,-18.79c-0.558,-0.398 -1.112,-0.801 -1.663,-1.208l-13.721,18.576Zm13.446,8.884c0.695,0.408 1.393,0.811 2.095,1.209l11.39,-20.091c-0.596,-0.338 -1.19,-0.68 -1.781,-1.028l-11.704,19.91Zm14.302,7.428c0.733,0.334 1.47,0.662 2.209,0.984l9.227,-21.171c-0.628,-0.274 -1.254,-0.552 -1.878,-0.836l-9.558,21.023Zm14.999,5.894c0.765,0.255 1.532,0.504 2.3,0.747l6.964,-22.02c-0.653,-0.206 -1.305,-0.418 -1.955,-0.635l-7.309,21.908Zm15.533,4.293c0.788,0.174 1.576,0.341 2.366,0.503l4.624,-22.627c-0.671,-0.137 -1.341,-0.28 -2.011,-0.428l-4.979,22.552Zm15.898,2.646c0.801,0.091 1.602,0.175 2.405,0.253l2.233,-22.987c-0.682,-0.066 -1.363,-0.137 -2.044,-0.214l-2.594,22.948Zm16.086,0.97c0.806,0.006 1.612,0.006 2.418,0l-0.181,-23.094c-0.685,0.005 -1.37,0.005 -2.056,0l-0.181,23.094Zm16.1,-0.717c0.802,-0.078 1.604,-0.162 2.405,-0.253l-2.594,-22.948c-0.681,0.077 -1.363,0.148 -2.045,0.214l2.234,22.987Zm15.936,-2.396c0.79,-0.162 1.579,-0.329 2.366,-0.503l-4.979,-22.552c-0.669,0.148 -1.339,0.291 -2.011,0.428l4.624,22.627Zm15.599,-4.049c0.769,-0.243 1.536,-0.492 2.3,-0.747l-7.309,-21.908c-0.65,0.217 -1.301,0.429 -1.955,0.635l6.964,22.02Zm15.091,-5.657c0.739,-0.322 1.475,-0.65 2.209,-0.984l-9.559,-21.023c-0.624,0.284 -1.25,0.562 -1.878,0.836l9.228,21.171Zm14.416,-7.203c0.701,-0.398 1.399,-0.801 2.094,-1.209l-11.704,-19.91c-0.591,0.348 -1.184,0.69 -1.78,1.028l11.39,20.091Zm13.584,-8.671c0.656,-0.469 1.308,-0.943 1.957,-1.422l-13.721,-18.576c-0.552,0.407 -1.106,0.81 -1.663,1.208l13.427,18.79Zm12.604,-10.043c0.603,-0.535 1.202,-1.075 1.797,-1.619l-15.588,-17.04c-0.505,0.462 -1.015,0.921 -1.527,1.375l15.318,17.284Zm11.484,-11.306c0.544,-0.595 1.084,-1.194 1.619,-1.797l-17.284,-15.318c-0.454,0.512 -0.913,1.022 -1.375,1.527l17.04,15.588Zm10.24,-12.444c0.479,-0.649 0.953,-1.301 1.422,-1.957l-18.79,-13.427c-0.399,0.557 -0.801,1.112 -1.208,1.663l18.576,13.721Zm8.883,-13.447c0.409,-0.695 0.812,-1.393 1.21,-2.094l-20.091,-11.39c-0.338,0.596 -0.68,1.189 -1.028,1.78l19.909,11.704Zm7.429,-14.301c0.334,-0.734 0.662,-1.47 0.984,-2.209l-21.171,-9.228c-0.274,0.628 -0.553,1.254 -0.836,1.878l21.023,9.559Zm5.894,-15c0.255,-0.764 0.504,-1.531 0.747,-2.3l-22.02,-6.964c-0.206,0.654 -0.418,1.306 -0.635,1.956l21.908,7.308Zm4.293,-15.533c0.174,-0.787 0.341,-1.576 0.503,-2.366l-22.627,-4.624c-0.137,0.672 -0.28,1.342 -0.428,2.011l22.552,4.979Zm2.646,-15.897c0.091,-0.801 0.175,-1.603 0.253,-2.405l-22.987,-2.234c-0.066,0.682 -0.138,1.364 -0.214,2.045l22.948,2.594Zm0.97,-16.086c0.006,-0.807 0.006,-1.613 0,-2.419l-23.094,0.181c0.005,0.686 0.005,1.371 0,2.056l23.094,0.182Zm-0.717,-16.1c-0.078,-0.803 -0.162,-1.604 -0.253,-2.405l-22.948,2.594c0.076,0.681 0.148,1.362 0.214,2.044l22.987,-2.233Zm-2.396,-15.937c-0.162,-0.79 -0.329,-1.578 -0.503,-2.365l-22.552,4.978c0.148,0.67 0.291,1.34 0.428,2.011l22.627,-4.624Zm-4.049,-15.599c-0.243,-0.768 -0.492,-1.535 -0.747,-2.3l-21.908,7.309c0.217,0.65 0.429,1.302 0.635,1.955l22.02,-6.964Zm-5.657,-15.09c-0.322,-0.739 -0.65,-1.475 -0.984,-2.209l-21.023,9.559c0.283,0.623 0.562,1.249 0.836,1.877l21.171,-9.227Zm-7.203,-14.416c-0.398,-0.702 -0.801,-1.4 -1.21,-2.095l-19.909,11.704c0.348,0.591 0.69,1.185 1.028,1.781l20.091,-11.39Zm-8.671,-13.585c-0.469,-0.655 -0.943,-1.308 -1.422,-1.956l-18.576,13.721c0.407,0.551 0.809,1.105 1.208,1.663l18.79,-13.428Zm-10.043,-12.603c-0.535,-0.603 -1.075,-1.202 -1.619,-1.797l-17.04,15.587c0.462,0.506 0.921,1.015 1.375,1.528l17.284,-15.318Zm-11.306,-11.485c-0.595,-0.544 -1.194,-1.083 -1.797,-1.618l-15.318,17.283c0.512,0.455 1.022,0.913 1.527,1.376l15.588,-17.041Zm-12.444,-10.24c-0.649,-0.479 -1.301,-0.953 -1.957,-1.421l-13.427,18.79c0.557,0.398 1.111,0.801 1.663,1.208l13.721,-18.577Zm-13.447,-8.883c-0.695,-0.408 -1.393,-0.812 -2.094,-1.209l-11.39,20.09c0.596,0.338 1.189,0.681 1.78,1.028l11.704,-19.909Zm-14.301,-7.429c-0.734,-0.334 -1.47,-0.661 -2.209,-0.984l-9.228,21.172c0.628,0.273 1.254,0.552 1.878,0.836l9.559,-21.024Zm-15,-5.893c-0.764,-0.255 -1.531,-0.504 -2.3,-0.748l-6.964,22.02c0.654,0.207 1.305,0.419 1.955,0.635l7.309,-21.907Zm-15.533,-4.293c-0.787,-0.174 -1.576,-0.342 -2.366,-0.503l-4.624,22.627c0.672,0.137 1.342,0.279 2.011,0.427l4.979,-22.551Zm-15.897,-2.646c-0.801,-0.091 -1.603,-0.175 -2.405,-0.253l-2.234,22.986c0.682,0.066 1.364,0.138 2.045,0.215l2.594,-22.948Z" style="fill:#f2f2f2;"/><path d="M217.802,387.027l-0.24,41.056l-0.01,0l0.24,-41.056l0.01,0Zm18.006,40.238l-0.01,0.001l-4.053,-40.856l0.01,-0.001l4.053,40.856Zm-31.949,-41.082l-4.527,40.807l-0.01,-0.002l4.527,-40.806l0.01,0.001Zm50.008,38.362l-0.009,0.002l-8.299,-40.21l0.01,-0.002l8.298,40.21Zm-63.784,-40.659l-8.77,40.11l-0.01,-0.002l8.771,-40.11l0.009,0.002Zm81.463,36.065l-0.009,0.003l-12.459,-39.121l0.009,-0.003l12.459,39.121Zm-94.924,-39.789l-12.915,38.973l-0.009,-0.003l12.915,-38.973l0.009,0.003Zm112.024,33.373l-0.009,0.004l-16.479,-37.605l0.009,-0.004l16.479,37.605Zm-125.022,-38.483l-16.918,37.409l-0.01,-0.004l16.919,-37.409l0.009,0.004Zm141.36,30.313l-0.008,0.005l-20.324,-35.674l0.009,-0.005l20.323,35.674Zm-153.754,-36.755l-20.734,35.437l-0.009,-0.005l20.734,-35.437l0.009,0.005Zm169.145,26.925l-0.008,0.005l-23.938,-33.357l0.009,-0.005l23.937,33.357Zm-180.795,-34.625l-24.328,33.073l-0.008,-0.006l24.328,-33.073l0.008,0.006Zm195.077,23.237l-0.007,0.006l-27.296,-30.669l0.007,-0.007l27.296,30.67Zm-205.859,-32.114l-27.654,30.348l-0.007,-0.007l27.653,-30.347l0.008,0.006Zm218.869,19.299l-0.007,0.008l-30.347,-27.654l0.006,-0.007l30.348,27.653Zm-228.665,-29.254l-30.675,27.29l-0.007,-0.008l30.676,-27.289l0.006,0.007Zm240.267,15.147l-0.006,0.008l-33.073,-24.328l0.006,-0.008l33.073,24.328Zm-248.971,-26.074l-33.355,23.939l-0.006,-0.008l33.355,-23.939l0.006,0.008Zm259.035,10.83l-0.005,0.009l-35.437,-20.735l0.005,-0.009l35.437,20.735Zm-266.546,-22.605l-35.676,20.321l-0.005,-0.009l35.676,-20.32l0.005,0.008Zm274.959,6.397l-0.004,0.009l-37.407,-16.922l0.004,-0.009l37.407,16.922Zm-281.199,-18.893l-37.605,16.481l-0.004,-0.009l37.604,-16.481l0.005,0.009Zm287.875,1.889l-0.004,0.009l-38.973,-12.913l0.003,-0.01l38.974,12.914Zm-292.775,-14.967l-39.121,12.458l-0.003,-0.01l39.121,-12.457l0.003,0.009Zm297.634,-2.636l-0.002,0.01l-40.108,-8.776l0.002,-0.009l40.108,8.775Zm-301.139,-10.882l-40.21,8.297l-0.002,-0.01l40.21,-8.297l0.002,0.01Zm304.133,-7.136l-0.001,0.01l-40.806,-4.534l0.001,-0.01l40.806,4.534Zm-306.207,-6.679l-40.857,4.053l-0.001,-0.01l40.857,-4.053l0.001,0.01Zm307.301,-11.554l0,0.01l-41.056,-0.241l0,-0.01l41.056,0.241Zm-307.919,-2.409l0,0.01l-41.057,-0.24l0.001,-0.01l41.056,0.24Zm307.102,-15.826l-40.857,4.049l-0.001,-0.01l40.857,-4.049l0.001,0.01Zm-306.257,1.884l-0.001,0.01l-40.807,-4.529l0.001,-0.01l40.807,4.529Zm303.537,-19.946l-40.209,8.301l-0.002,-0.01l40.209,-8.301l0.002,0.01Zm-301.24,6.169l-0.002,0.01l-40.109,-8.769l0.002,-0.01l40.109,8.769Zm296.648,-23.845l-39.122,12.454l-0.003,-0.009l39.122,-12.454l0.003,0.009Zm-292.924,10.387l-0.003,0.01l-38.971,-12.92l0.003,-0.01l38.971,12.92Zm286.509,-27.489l-37.606,16.478l-0.004,-0.009l37.606,-16.478l0.004,0.009Zm-281.397,14.49l-0.004,0.01l-37.408,-16.922l0.004,-0.009l37.408,16.921Zm273.229,-30.826l-35.677,20.317l-0.005,-0.008l35.678,-20.318l0.004,0.009Zm-266.786,18.432l-0.005,0.009l-35.436,-20.736l0.005,-0.008l35.436,20.735Zm256.956,-33.826l-33.358,23.937l-0.006,-0.008l33.358,-23.937l0.006,0.008Zm-249.253,22.175l-0.006,0.008l-33.075,-24.326l0.006,-0.008l33.075,24.326Zm237.866,-36.457l-30.671,27.294l-0.007,-0.008l30.672,-27.293l0.006,0.007Zm-228.99,25.676l-0.007,0.008l-30.347,-27.654l0.006,-0.007l30.348,27.653Zm216.175,-38.689l-27.652,30.35l-0.007,-0.007l27.651,-30.349l0.008,0.006Zm-206.22,28.895l-0.007,0.006l-27.289,-30.675l0.007,-0.007l27.289,30.676Zm192.113,-40.497l-24.327,33.074l-0.008,-0.006l24.327,-33.074l0.008,0.006Zm-181.185,31.795l-0.009,0.005l-23.936,-33.357l0.008,-0.006l23.937,33.358Zm165.944,-41.859l-20.737,35.436l-0.009,-0.005l20.737,-35.436l0.009,0.005Zm-154.168,34.347l-0.009,0.005l-20.32,-35.676l0.009,-0.005l20.32,35.676Zm137.958,-42.762l-16.92,37.408l-0.009,-0.004l16.92,-37.408l0.009,0.004Zm-125.462,36.523l-0.01,0.004l-16.479,-37.605l0.009,-0.004l16.48,37.605Zm108.462,-43.198l-12.919,38.972l-0.009,-0.003l12.918,-38.972l0.01,0.003Zm-95.382,38.299l-0.01,0.003l-12.459,-39.121l0.01,-0.003l12.459,39.121Zm77.776,-43.161l-8.774,40.109l-0.009,-0.002l8.773,-40.109l0.01,0.002Zm-64.258,39.657l-0.01,0.002l-8.297,-40.21l0.009,-0.002l8.298,40.21Zm46.239,-42.652l-4.53,40.807l-0.01,-0.001l4.53,-40.807l0.01,0.001Zm-32.425,40.579l-0.01,0.001l-4.053,-40.856l0.01,-0.001l4.053,40.856Zm14.194,-41.673l-0.241,41.056l-0.01,0l0.241,-41.056l0.01,0Z"/><path d="M232.018,146.609c16.916,2.077 28.963,17.497 26.886,34.413c-2.077,16.916 -17.497,28.963 -34.413,26.886c-16.916,-2.077 -28.963,-17.497 -26.886,-34.413c2.077,-16.916 17.497,-28.963 34.413,-26.886Z" style="fill:none;stroke:#bfbfbf;stroke-width:0.6px;stroke-dasharray:0.6,1.2,0.6,1.2;"/><g><path d="M90.729,46.994c-4.306,-5.511 -12.277,-6.49 -17.788,-2.184l-19.973,15.604c-5.511,4.306 -6.49,12.277 -2.184,17.788l15.604,19.973c4.306,5.511 12.277,6.49 17.788,2.184l19.973,-15.604c5.511,-4.306 6.49,-12.277 2.184,-17.788l-15.604,-19.973Z" style="fill:none;stroke:#bfbfbf;stroke-width:0.6px;stroke-dasharray:0.6,1.2,0.6,1.2;"/><path d="M115.914,96.452l-10.238,-13.105" style="fill:none;stroke:#bfbfbf;stroke-width:0.6px;stroke-dasharray:0.6,1.2,0.6,1.2;"/><path d="M83.734,100.689l9.994,12.791" style="fill:none;stroke:#bfbfbf;stroke-width:0.6px;stroke-dasharray:0.6,1.2,0.6,1.2;"/></g><g><path d="M281.083,19.524c0.853,-6.942 -4.091,-13.27 -11.033,-14.122l-40.771,-5.006c-6.942,-0.853 -13.27,4.091 -14.123,11.033l-3.089,25.157c-0.852,6.942 4.092,13.27 11.034,14.122l40.771,5.007c6.942,0.852 13.27,-4.092 14.122,-11.034l3.089,-25.157Z" style="fill:#fff;stroke:#bfbfbf;stroke-width:0.6px;stroke-dasharray:0.6,1.2,0.6,1.2;"/><g><path d="M255.605,69.254l1.761,-14.338" style="fill:#fff;stroke:#bfbfbf;stroke-width:0.6px;stroke-dasharray:0.6,1.2,0.6,1.2;"/><path d="M229.607,51.507l-1.761,14.338" style="fill:#fff;stroke:#bfbfbf;stroke-width:0.6px;stroke-dasharray:0.6,1.2,0.6,1.2;"/></g></g><path d="M343.589,159.738l-3.648,-4.67l-130.749,102.152l3.648,4.669l130.749,-102.151Z" style="fill:#fff;stroke:#bfbfbf;stroke-width:0.6px;stroke-dasharray:0.6,1.2,0.6,1.2;"/><path d="M228.136,179.713l1.847,-4.572l-34.556,-13.961l-1.846,4.571l34.555,13.962Z" style="fill:#fff;stroke:#bfbfbf;stroke-width:0.6px;stroke-dasharray:0.6,1.2,0.6,1.2;"/></g></svg>