<?xml version="1.0" encoding="UTF-8" standalone="no"?><!DOCTYPE svg PUBLIC "-//W3C//DTD SVG 1.1//EN" "http://www.w3.org/Graphics/SVG/1.1/DTD/svg11.dtd"><svg width="100%" height="100%" viewBox="0 0 556 390" version="1.1" xmlns="http://www.w3.org/2000/svg" xmlns:xlink="http://www.w3.org/1999/xlink" xml:space="preserve" style="fill-rule:evenodd;clip-rule:evenodd;stroke-linecap:square;stroke-linejoin:round;stroke-miterlimit:1.5;"><g id="Interface"><path d="M555.424,20.3c0,-11.038 -8.961,-20 -20,-20l-515,0c-11.038,0 -20,8.962 -20,20l0,348.996c0,11.038 8.962,20 20,20l515,0c11.039,0 20,-8.962 20,-20l0,-348.996Z" style="fill:#fff;stroke:#bfbfbf;stroke-width:0.6px;stroke-dasharray:0.6,1.2,0.6,1.2;"/><path d="M555.424,16.818l-555,0" style="fill:none;stroke:#bfbfbf;stroke-width:0.6px;stroke-dasharray:0.6,1.2,0.6,1.2;"/><path d="M555.424,53.157l-555,0" style="fill:none;stroke:#bfbfbf;stroke-width:0.6px;stroke-dasharray:0.6,1.2,0.6,1.2;"/><path d="M538.906,74.675c0,-2.76 -2.24,-5 -5,-5l-511.964,0c-2.759,0 -5,2.24 -5,5l0,290.625c0,2.76 2.241,5 5,5l511.964,0c2.76,0 5,-2.24 5,-5l0,-290.625Z" style="fill:none;stroke:#bfbfbf;stroke-width:0.6px;stroke-dasharray:0.6,1.2,0.6,1.2;"/><path d="M522.389,91.193c0,-2.76 -2.241,-5 -5,-5l-75.893,0c-2.76,0 -5,2.24 -5,5l0,72.589c0,2.76 2.24,5 5,5l75.893,0c2.759,0 5,-2.24 5,-5l0,-72.589Z" style="fill:none;stroke:#bfbfbf;stroke-width:0.6px;stroke-dasharray:0.6,1.2,0.6,1.2;"/><path d="M522.389,190.3c0,-2.76 -2.241,-5 -5,-5l-178.304,0c-2.76,0 -5,2.24 -5,5l0,158.482c0,2.76 2.24,5 5,5l178.304,0c2.759,0 5,-2.24 5,-5l0,-158.482Z" style="fill:none;stroke:#bfbfbf;stroke-width:0.6px;stroke-dasharray:0.6,1.2,0.6,1.2;"/><path d="M317.567,190.3c0,-2.76 -2.24,-5 -5,-5l-178.303,0c-2.76,0 -5,2.24 -5,5l0,158.482c0,2.76 2.24,5 5,5l178.303,0c2.76,0 5,-2.24 5,-5l0,-158.482Z" style="fill:none;stroke:#bfbfbf;stroke-width:0.6px;stroke-dasharray:0.6,1.2,0.6,1.2;"/><path d="M419.978,91.193c0,-2.76 -2.241,-5 -5,-5l-75.893,0c-2.76,0 -5,2.24 -5,5l0,72.589c0,2.76 2.24,5 5,5l75.893,0c2.759,0 5,-2.24 5,-5l0,-72.589Z" style="fill:none;stroke:#bfbfbf;stroke-width:0.6px;stroke-dasharray:0.6,1.2,0.6,1.2;"/><path d="M317.567,91.193c0,-2.76 -2.24,-5 -5,-5l-75.893,0c-2.759,0 -5,2.24 -5,5l0,72.589c0,2.76 2.241,5 5,5l75.893,0c2.76,0 5,-2.24 5,-5l0,-72.589Z" style="fill:none;stroke:#bfbfbf;stroke-width:0.6px;stroke-dasharray:0.6,1.2,0.6,1.2;"/><path d="M215.156,91.193c0,-2.76 -2.24,-5 -5,-5l-75.892,0c-2.76,0 -5,2.24 -5,5l0,72.589c0,2.76 2.24,5 5,5l75.892,0c2.76,0 5,-2.24 5,-5l0,-72.589Z" style="fill:none;stroke:#bfbfbf;stroke-width:0.6px;stroke-dasharray:0.6,1.2,0.6,1.2;"/><path d="M112.746,91.193c0,-2.76 -2.241,-5 -5,-5l-69.286,0c-2.76,0 -5,2.24 -5,5l0,257.589c0,2.76 2.24,5 5,5l69.286,0c2.759,0 5,-2.24 5,-5l0,-257.589Z" style="fill:none;stroke:#bfbfbf;stroke-width:0.6px;stroke-dasharray:0.6,1.2,0.6,1.2;"/></g></svg>