<?xml version="1.0" encoding="UTF-8" standalone="no"?><!DOCTYPE svg PUBLIC "-//W3C//DTD SVG 1.1//EN" "http://www.w3.org/Graphics/SVG/1.1/DTD/svg11.dtd"><svg width="100%" height="100%" viewBox="0 0 241 489" version="1.1" xmlns="http://www.w3.org/2000/svg" xmlns:xlink="http://www.w3.org/1999/xlink" xml:space="preserve" style="fill-rule:evenodd;clip-rule:evenodd;"><g><path id="rect3880" d="M237.804,29.438c0,-15.565 -12.637,-28.201 -28.201,-28.201l-178.606,0c-15.564,0 -28.201,12.636 -28.201,28.201l0,429.627c0,15.564 12.637,28.2 28.201,28.2l178.606,0c15.564,0 28.201,-12.636 28.201,-28.2l0,-429.627Z" style="fill:#fff;stroke:#a6a6a6;stroke-width:0.6px;stroke-dasharray:0.6,1.2,0.6,1.2;"/><g id="layer4"><g opacity="0.96"><path id="path5730" d="M89.036,30.374c0,1.954 -1.608,3.562 -3.562,3.562c-1.954,0 -3.562,-1.608 -3.562,-3.562c0,-1.954 1.608,-3.562 3.562,-3.562c1.954,0 3.562,1.608 3.562,3.562c0,0 0,0 0,0Z" style="fill:none;stroke:#a6a6a6;stroke-width:0.6px;stroke-linejoin:round;stroke-miterlimit:1.41421;stroke-dasharray:0.6,1.2,0.6,1.2;"/><path d="M141.579,30.57c0,-2.074 -1.684,-3.758 -3.758,-3.758l-34.559,0c-2.074,0 -3.758,1.684 -3.758,3.758c0,2.075 1.684,3.758 3.758,3.758l34.559,0c2.074,0 3.758,-1.683 3.758,-3.758Z" style="fill:none;stroke:#a6a6a6;stroke-width:0.6px;stroke-linecap:round;stroke-linejoin:round;stroke-miterlimit:1.5;stroke-dasharray:0.6,1.2,0.6,1.2;"/></g></g><path id="path6708" d="M140.139,457.729c0,10.883 -8.956,19.838 -19.839,19.838c-10.883,0 -19.839,-8.955 -19.839,-19.838c0,-10.883 8.956,-19.839 19.839,-19.839c10.883,0 19.839,8.956 19.839,19.839Z" style="fill:none;stroke:#a6a6a6;stroke-width:0.6px;stroke-linejoin:round;stroke-miterlimit:1.41421;stroke-dasharray:0.6,1.2,0.6,1.2;"/><g id="layer6"><path id="rect6801" d="M237.807,103.244l0,37.476l1.063,0c0.795,0 1.43,-0.636 1.43,-1.431l0,-34.592c0,-0.795 -0.635,-1.453 -1.43,-1.453l-1.063,0Z" style="fill:#fff;stroke:#a6a6a6;stroke-width:0.6px;stroke-linejoin:round;stroke-miterlimit:1.41421;stroke-dasharray:0.6,1.2,0.6,1.2;"/><path id="rect6801-5" d="M2.793,63.863l0,16.257l-1.063,0c-0.795,0 -1.43,-0.275 -1.43,-0.62l0,-15.007c0,-0.345 0.635,-0.63 1.43,-0.63l1.063,0Z" style="fill:#fff;stroke:#a6a6a6;stroke-width:0.6px;stroke-linejoin:round;stroke-miterlimit:1.41421;stroke-dasharray:0.6,1.2,0.6,1.2;"/><path id="rect6801-5-0" d="M2.793,103.374l0,33.675l-1.063,0c-0.795,0 -1.43,-0.571 -1.43,-1.285l0,-31.085c0,-0.714 0.635,-1.305 1.43,-1.305l1.063,0Z" style="fill:#fff;stroke:#a6a6a6;stroke-width:0.6px;stroke-linejoin:round;stroke-miterlimit:1.41421;stroke-dasharray:0.6,1.2,0.6,1.2;"/><path id="rect6801-5-0-5" d="M2.793,147.199l0,33.676l-1.063,0c-0.795,0 -1.43,-0.571 -1.43,-1.285l0,-31.085c0,-0.714 0.635,-1.306 1.43,-1.306l1.063,0Z" style="fill:#fff;stroke:#a6a6a6;stroke-width:0.6px;stroke-linejoin:round;stroke-miterlimit:1.41421;stroke-dasharray:0.6,1.2,0.6,1.2;"/></g><rect id="rect6949" x="15.583" y="58.13" width="209.434" height="372.071" style="fill:none;stroke:#a6a6a6;stroke-width:0.6px;stroke-linejoin:round;stroke-dasharray:0.6,1.2,0.6,1.2;"/></g></svg>